<svg version="1.1" id="Capa_1" xmlns="http://www.w3.org/2000/svg" xmlns:xlink="http://www.w3.org/1999/xlink" x="0px" y="0px"
	 viewBox="0 0 100 100" enable-background="new 0 0 100 100" xml:space="preserve">
	<g id="diamondSVG">
		<path stroke="blue" fill="blue" d="M87.387,37.216L74.846,16.55c-0.375-0.618-1.045-0.994-1.768-0.994H26.922c-0.722,0-1.391,0.376-1.767,0.994L12.614,37.216
			c-0.011,0.02-0.013,0.041-0.024,0.059c-0.084,0.15-0.152,0.31-0.197,0.479c-0.007,0.027-0.017,0.052-0.023,0.077
			c-0.034,0.148-0.055,0.3-0.055,0.459c0,0.03,0.007,0.058,0.009,0.088c0.002,0.044,0.008,0.084,0.012,0.127
			c0.018,0.164,0.053,0.325,0.106,0.477c0.009,0.024,0.014,0.05,0.023,0.073c0.07,0.176,0.167,0.336,0.28,0.483
			c0.012,0.016,0.017,0.035,0.028,0.05l35.604,44.07l0.016,0.019c0.009,0.011,0.02,0.017,0.029,0.026
			c0.096,0.115,0.207,0.218,0.328,0.312c0.006,0.002,0.01,0.01,0.016,0.015c0.016,0.012,0.031,0.02,0.048,0.03
			c0.167,0.117,0.349,0.222,0.556,0.287c0.156,0.049,0.313,0.061,0.469,0.071c0.054,0.006,0.104,0.026,0.158,0.026
			c0.001,0,0.001,0,0.002,0l0,0l0,0c0.012,0,0.022-0.006,0.033-0.006c0.182-0.004,0.358-0.033,0.528-0.082
			c0.022-0.006,0.045-0.004,0.068-0.012c0.002-0.001,0.004-0.001,0.006-0.002c0.002,0,0.002-0.003,0.006-0.003
			c0.047-0.019,0.092-0.041,0.139-0.061c0.055-0.021,0.109-0.044,0.162-0.07c0.064-0.033,0.125-0.074,0.184-0.114
			c0.04-0.025,0.081-0.05,0.119-0.078c0.02-0.014,0.04-0.025,0.059-0.041c0.092-0.078,0.176-0.162,0.254-0.252
			c0.014-0.019,0.035-0.029,0.049-0.049l0.017-0.019l35.603-44.07C87.773,38.91,87.837,37.962,87.387,37.216z M54.457,19.689
			l6.613,16.532H38.931l6.613-16.532H54.457z M28.086,19.689h13.006l-6.613,16.532H18.052L28.086,19.689z M18.708,40.355H34.37
			l10.289,32.122L18.708,40.355z M50,75.602L38.71,40.355h22.58L50,75.602z M55.342,72.479L65.63,40.355h15.662L55.342,72.479z
			 M65.521,36.222L58.908,19.69h13.006l10.034,16.532H65.521z"/>
	</g>
</svg>